<svg aria-hidden="true" style="position: absolute; width: 0; height: 0; overflow: hidden;" version="1.1" xmlns="http://www.w3.org/2000/svg" xmlns:xlink="http://www.w3.org/1999/xlink">
<defs>
<symbol id="arrow-right" viewBox="0 0 51 32">
<path fill="none" stroke="#183800" style="stroke: var(--color1, #183800)" stroke-linejoin="miter" stroke-linecap="round" stroke-miterlimit="4" stroke-width="0.8067" d="M0.538 16.308c0-3.021 1.642-6.923 3.204-9.172 2.267-3.266 4.867-5.744 8.348-6.466 3.704-0.768 5.695 1.968 8.348 4.501 2.451 2.34 4.674 4.675 6.407 7.862 1.409 2.591 2.41 5.504 3.671 8.204 1.308 2.8 2.907 4.458 4.817 6.552 1.557 1.708 3.871 2.7 5.869 3.39 3.073 1.061 5.299-1.033 7.74-3.077"></path>
<path fill="none" stroke="#183800" style="stroke: var(--color1, #183800)" stroke-linejoin="miter" stroke-linecap="round" stroke-miterlimit="4" stroke-width="0.8067" d="M48.134 27.055c0.019 0.187 0.883-0.137 0.988-0.174 0.29-0.1 0.567-0.26 0.814-0.45 0.084-0.064 0.167-0.127 0.235-0.209 0.021-0.026 0.079-0.131 0.112-0.138 0.017-0.004-0.068 0.428-0.077 0.463-0.068 0.259-0.126 0.518-0.206 0.773-0.125 0.401-0.261 0.806-0.437 1.184"></path>
</symbol>
<symbol id="arrow-down" viewBox="0 0 20 32">
<path fill="none" stroke="#183800" style="stroke: var(--color1, #183800)" stroke-linejoin="miter" stroke-linecap="round" stroke-miterlimit="4" stroke-width="0.4384" d="M0.292 6.563c0.486 0 0.831-0.525 1.188-0.878 1.243-1.23 2.551-2.352 3.934-3.344 2.588-1.857 5.45-2.564 8.376-1.651 2.397 0.748 4.74 2.55 5.552 5.508 0.686 2.5-0.239 5.25-1.231 7.473-1.222 2.74-2.99 4.855-4.993 6.752-1.73 1.638-3.967 2.713-5.544 4.578-0.901 1.065-0.93 1.755-0.93 3.177 0 1.181 0.816 1.677 1.085 2.655"></path>
<path fill="none" stroke="#183800" style="stroke: var(--color1, #183800)" stroke-linejoin="miter" stroke-linecap="round" stroke-miterlimit="4" stroke-width="0.4384" d="M7.458 31.129c-0.019 0.003 0.015 0.045 0.019 0.050 0.062 0.072 0.129 0.14 0.192 0.211 0.094 0.104 0.182 0.264 0.307 0.313 0.107 0.042 0.156-0.22 0.162-0.303 0.011-0.148 0.018-0.295 0.014-0.443-0.008-0.29 0.004-0.568 0.031-0.857"></path>
</symbol>
<symbol id="arrow-down-left" viewBox="0 0 27 32">
<path fill="none" stroke="#183800" style="stroke: var(--color1, #183800)" stroke-linejoin="miter" stroke-linecap="round" stroke-miterlimit="4" stroke-width="0.6" d="M11.743 1.726c1.051 0 2.153-0.702 3.169-0.98 1.349-0.37 2.951-0.652 4.178 0.304 2.553 1.991 5.15 4.015 6.423 7.397 0.546 1.45 0.837 2.978 1.009 4.552 0.846 7.726-5.302 12.159-10.435 14.637-3.018 1.457-5.464-1.448-8.417-1.448-0.867 0-1.424 0.093-2.153 0.668-0.337 0.266-0.792 0.266-1.058 0.668-0.907 1.369-2.336 2.392-3.458 3.475"></path>
<path fill="none" stroke="#183800" style="stroke: var(--color1, #183800)" stroke-linejoin="miter" stroke-linecap="round" stroke-miterlimit="4" stroke-width="0.6" d="M0.648 30c0 0.149-0.002 0.301-0.012 0.45-0.021 0.309-0.122 0.622-0.192 0.916-0.010 0.042-0.058 0.155-0.041 0.204 0.021 0.060 0.128 0.014 0.156 0.003 0.117-0.043 0.235-0.087 0.352-0.13 0.218-0.080 0.466-0.187 0.688-0.086"></path>
</symbol>
<symbol id="arrow-left" viewBox="0 0 54 32">
<path fill="none" stroke="#183800" style="stroke: var(--color1, #183800)" stroke-linejoin="miter" stroke-linecap="round" stroke-miterlimit="4" stroke-width="1.0909" d="M53.455 14.414c-0.32 3.871-3.29 8.472-5.35 11.206-2.767 3.673-7.119 6.802-11.41 5.243-3.832-1.392-4.639-6.405-4.639-10.564 0-6.174 0.232-12.281-3.877-16.746-7.603-8.264-15.248 3.521-19.15 10.799-1.774 3.308-2.696 6.857-3.851 10.454-0.657 2.046-1.609 3.96-3.36 4.539"></path>
<path fill="none" stroke="#183800" style="stroke: var(--color1, #183800)" stroke-linejoin="miter" stroke-linecap="round" stroke-miterlimit="4" stroke-width="1.0909" d="M1.6 26.909c-0.020 0.48-0.135 1.013-0.241 1.477-0.144 0.632-0.365 1.227-0.632 1.795-0.010 0.021 0.307-0.206 0.381-0.257 0.252-0.176 0.534-0.306 0.826-0.329 0.463-0.037 0.914 0.14 1.339 0.346"></path>
</symbol>
<symbol id="arrow-left-up" viewBox="0 0 43 32">
<path fill="none" stroke="#183800" style="stroke: var(--color1, #183800)" stroke-linejoin="miter" stroke-linecap="round" stroke-miterlimit="4" stroke-width="0.7559" d="M42.583 17.319c-2.371 3.184-4.080 7.34-6.933 9.993-3.356 3.12-8.546 6.076-12.484 2.655-3.812-3.311-1.592-12.327-0.898-16.831 0.589-3.818 2.585-9.128-0.732-11.849-3.002-2.462-7.073 1.554-9.98 2.784-1.667 0.705-3.419 1.516-5.114 1.999-1.948 0.554-2.999-0.328-4.677-1.342"></path>
<path fill="none" stroke="#183800" style="stroke: var(--color1, #183800)" stroke-linejoin="miter" stroke-linecap="round" stroke-miterlimit="4" stroke-width="0.7559" d="M1.403 6.047c-0.090-0.014-0.145-0.497-0.171-0.579-0.051-0.158-0.098-0.328-0.167-0.474-0.067-0.143-0.603-1.088-0.557-1.115 0.321-0.189 0.754-0.083 1.093-0.136 0.478-0.074 0.95-0.092 1.424-0.216"></path>
</symbol>
<symbol id="arrow-up" viewBox="0 0 20 32">
<path fill="none" stroke="#183800" style="stroke: var(--color1, #183800)" stroke-linejoin="miter" stroke-linecap="round" stroke-miterlimit="4" stroke-width="0.412" d="M13.284 29.829c-0.088 0.854-1.382 1.539-1.94 1.709-1.825 0.556-4.15-0.21-5.786-1.207-5.634-3.431-6.739-12.015-3.426-18.187 2.666-4.967 7.052-4.176 11.193-5.037 2.961-0.616 5.262-2.235 5.902-5.871"></path>
<path fill="none" stroke="#183800" style="stroke: var(--color1, #183800)" stroke-linejoin="miter" stroke-linecap="round" stroke-miterlimit="4" stroke-width="0.412" d="M18.815 1.231c0.004 0.014 0.042-0.046 0.044-0.048 0.115-0.169 0.228-0.343 0.33-0.527 0.051-0.093 0.108-0.189 0.142-0.296 0.005-0.015 0.016-0.106 0.018-0.082 0.010 0.138 0.053 0.291 0.081 0.426 0.053 0.256 0.051 0.543 0.073 0.806"></path>
</symbol>
<symbol id="arrow-up-right" viewBox="0 0 61 32">
<path fill="none" stroke="#183800" style="stroke: var(--color1, #183800)" stroke-linejoin="miter" stroke-linecap="round" stroke-miterlimit="4" stroke-width="0.7111" d="M10.319 31.526c-0.988-1.196-2.64-2.069-3.86-2.871-3.037-1.997-5.985-6.18-5.985-10.555 0-5.763 3.763-10.788 8.019-12.819 4.284-2.044 9.207-1.245 13.652-0.734 4.384 0.504 8.676 1.919 12.974 3.013 3.43 0.874 6.927 1.63 10.431 1.033 1.524-0.259 2.954-0.578 4.401-1.215 1.235-0.544 2.444-1.182 3.684-1.704 2.009-0.845 3.652-1.728 5.151-3.542"></path>
<path fill="none" stroke="#183800" style="stroke: var(--color1, #183800)" stroke-linejoin="miter" stroke-linecap="round" stroke-miterlimit="4" stroke-width="0.7111" d="M57.837 0.953c0.32 0 0.641-0.087 0.961-0.115 0.257-0.023 0.525-0.037 0.778-0.095 0.171-0.039 0.467-0.086 0.601-0.224 0.078-0.081-0.020-0.036-0.052 0.014-0.096 0.154-0.094 0.449-0.12 0.628-0.086 0.582-0.293 1.177-0.542 1.684"></path>
</symbol>
</defs>
</svg>
