<svg aria-hidden="true" style="position: absolute; width: 0; height: 0; overflow: hidden;" version="1.1" xmlns="http://www.w3.org/2000/svg" xmlns:xlink="http://www.w3.org/1999/xlink">
<defs>
<symbol id="arrow-up" viewBox="0 0 21 32">
<path fill="none" stroke="#183800" style="stroke: var(--color1, #183800)" stroke-linejoin="miter" stroke-linecap="round" stroke-miterlimit="4" stroke-width="1.4545" d="M13.284 29.281c-0.083 0.788-1.308 1.42-1.836 1.576-1.728 0.513-3.928-0.194-5.477-1.113-5.333-3.165-6.379-11.082-3.242-16.775 2.524-4.581 6.675-3.851 10.595-4.646 2.803-0.568 4.981-2.062 5.586-5.415"></path>
<path fill="none" stroke="#183800" style="stroke: var(--color1, #183800)" stroke-linejoin="miter" stroke-linecap="round" stroke-miterlimit="4" stroke-width="1.4545" d="M19.394 2.095c0.005 0.017 0.059-0.054 0.062-0.057 0.162-0.199 0.322-0.404 0.465-0.62 0.072-0.109 0.152-0.223 0.2-0.348 0.007-0.018 0.022-0.124 0.025-0.096 0.014 0.163 0.075 0.343 0.114 0.501 0.074 0.301 0.072 0.639 0.104 0.949"></path>
</symbol>
<symbol id="arrow-left" viewBox="0 0 24 32">
<path fill="none" stroke="#183800" style="stroke: var(--color1, #183800)" stroke-linejoin="miter" stroke-linecap="round" stroke-miterlimit="4" stroke-width="1.8113" d="M22.34 17.259c-1.122 3.039-1.931 7.007-3.282 9.539-1.589 2.979-4.045 5.8-5.909 2.535-1.804-3.161-0.754-11.767-0.425-16.067 0.279-3.645 1.224-8.713-0.347-11.311-1.421-2.351-3.348 1.483-4.724 2.657-0.789 0.673-1.618 1.448-2.421 1.908-0.922 0.529-1.419-0.313-2.214-1.281"></path>
<path fill="none" stroke="#183800" style="stroke: var(--color1, #183800)" stroke-linejoin="miter" stroke-linecap="round" stroke-miterlimit="4" stroke-width="1.8113" d="M1.854 6.641c-0.065-0.010-0.104-0.357-0.123-0.416-0.037-0.114-0.071-0.236-0.12-0.341-0.048-0.103-0.434-0.782-0.401-0.802 0.231-0.136 0.542-0.060 0.786-0.098 0.344-0.053 0.683-0.066 1.023-0.155"></path>
</symbol>
<symbol id="arrow-down-left" viewBox="0 0 44 32">
<path fill="none" stroke="#183800" style="stroke: var(--color1, #183800)" stroke-linejoin="miter" stroke-linecap="round" stroke-miterlimit="4" stroke-width="3" d="M42 14.546c-0.235 3.549-2.421 7.766-3.937 10.272-2.037 3.367-5.239 6.235-8.397 4.806-2.82-1.276-3.414-5.871-3.414-9.684 0-5.66 0.171-11.257-2.853-15.35-5.595-7.575-11.222 3.228-14.093 9.899-1.305 3.033-1.984 6.286-2.834 9.583-0.483 1.875-1.184 3.63-2.472 4.16"></path>
<path fill="none" stroke="#183800" style="stroke: var(--color1, #183800)" stroke-linejoin="miter" stroke-linecap="round" stroke-miterlimit="4" stroke-width="3" d="M2.686 26c-0.016 0.587-0.106 1.239-0.189 1.805-0.113 0.772-0.287 1.5-0.497 2.194-0.008 0.026 0.241-0.251 0.299-0.314 0.198-0.215 0.42-0.374 0.649-0.403 0.364-0.045 0.718 0.171 1.052 0.423"></path>
</symbol>
<symbol id="arrow-down-left-1" viewBox="0 0 26 32">
<path fill="none" stroke="#183800" style="stroke: var(--color1, #183800)" stroke-linejoin="miter" stroke-linecap="round" stroke-miterlimit="4" stroke-width="2.0870" d="M1.535 28.522c0 0.195-0.001 0.393-0.007 0.587-0.012 0.403-0.071 0.811-0.111 1.195-0.006 0.055-0.034 0.202-0.024 0.266 0.012 0.078 0.074 0.018 0.091 0.004 0.068-0.056 0.136-0.113 0.204-0.17 0.127-0.105 0.27-0.244 0.399-0.111"></path>
<path fill="none" stroke="#183800" style="stroke: var(--color1, #183800)" stroke-linejoin="miter" stroke-linecap="round" stroke-miterlimit="4" stroke-width="2.0870" d="M12.528 2.627c0.885 0 1.813-0.654 2.669-0.914 1.137-0.345 2.486-0.608 3.519 0.284 2.15 1.856 4.338 3.742 5.411 6.894 0.46 1.351 0.705 2.776 0.85 4.243 0.712 7.201-4.466 11.333-8.79 13.643-2.542 1.358-4.603-1.35-7.090-1.35-0.73 0-1.2 0.087-1.814 0.623-0.284 0.248-0.667 0.248-0.891 0.623-0.764 1.276-1.968 2.23-2.913 3.239"></path>
</symbol>
<symbol id="arrow-down" viewBox="0 0 29 32">
<path fill="none" stroke="#183800" style="stroke: var(--color1, #183800)" stroke-linejoin="miter" stroke-linecap="round" stroke-miterlimit="4" stroke-width="1.5" d="M9.973 4.974c0.395 0.197 0.882-0.079 1.311-0.213 1.495-0.47 3-0.828 4.514-1.052 2.834-0.421 5.437 0.179 7.452 2.087 1.651 1.562 2.842 3.937 2.334 6.607-0.43 2.256-2.267 4.056-3.949 5.413-2.074 1.672-4.344 2.63-6.719 3.319-2.051 0.595-4.291 0.54-6.308 1.376-1.152 0.478-1.448 1.012-2.009 2.137-0.466 0.934 0.001 1.658-0.167 2.54"></path>
<path fill="none" stroke="#183800" style="stroke: var(--color1, #183800)" stroke-linejoin="miter" stroke-linecap="round" stroke-miterlimit="4" stroke-width="1.5" d="M5.119 28.117c-0.025-0.032-0.030 0.057-0.030 0.069-0.003 0.164 0.005 0.334 0.006 0.5 0.002 0.245-0.062 0.518 0.034 0.782 0.083 0.226 0.42 0.14 0.515 0.095 0.169-0.081 0.333-0.168 0.485-0.276 0.297-0.213 0.607-0.379 0.944-0.525"></path>
</symbol>
<symbol id="arrow-left-1" viewBox="0 0 37 32">
<path fill="none" stroke="#183800" style="stroke: var(--color1, #183800)" stroke-linejoin="miter" stroke-linecap="round" stroke-miterlimit="4" stroke-width="1.8824" d="M3.549 12.457c0.588-2.317 2.358-5.054 3.757-6.535 2.031-2.151 4.114-3.646 6.398-3.656 2.43-0.011 3.124 2.399 4.264 4.756 1.054 2.178 1.968 4.316 2.415 7.031 0.363 2.208 0.413 4.598 0.664 6.866 0.261 2.352 0.923 3.873 1.691 5.777 0.627 1.553 1.858 2.676 2.954 3.516 1.686 1.294 3.464 0.036 5.364-1.151"></path>
<path fill="none" stroke="#183800" style="stroke: var(--color1, #183800)" stroke-linejoin="miter" stroke-linecap="round" stroke-miterlimit="4" stroke-width="1.8824" d="M33.526 28.063c-0.106 0.101 0.552 0.552 0.63 0.608 0.215 0.155 0.461 0.273 0.709 0.357 0.084 0.028 0.167 0.057 0.254 0.066 0.027 0.003 0.123-0.006 0.145 0.013 0.011 0.010-0.301 0.154-0.328 0.164-0.196 0.075-0.388 0.155-0.588 0.219-0.315 0.101-0.638 0.197-0.965 0.251"></path>
</symbol>
<symbol id="arrow-left-start" viewBox="0 0 81 32">
<path fill="none" stroke="#183800" style="stroke: var(--color1, #183800)" stroke-linejoin="miter" stroke-linecap="round" stroke-miterlimit="4" stroke-width="3.0968" d="M13.567 29.935c-1.155-1.008-3.084-1.744-4.509-2.42-3.549-1.683-6.993-5.209-6.993-8.896 0-4.857 4.396-9.093 9.369-10.805 5.005-1.723 10.757-1.049 15.951-0.618 5.122 0.425 10.137 1.617 15.158 2.54 4.008 0.737 8.093 1.374 12.188 0.871 1.78-0.219 3.451-0.487 5.142-1.024 1.443-0.458 2.855-0.996 4.304-1.436 2.347-0.713 4.267-1.457 6.018-2.985"></path>
<path fill="none" stroke="#183800" style="stroke: var(--color1, #183800)" stroke-linejoin="miter" stroke-linecap="round" stroke-miterlimit="4" stroke-width="3.0968" d="M75.355 2.69c0.419 0 0.838-0.113 1.256-0.15 0.336-0.030 0.686-0.048 1.017-0.124 0.223-0.051 0.61-0.112 0.785-0.293 0.102-0.106-0.027-0.047-0.068 0.019-0.125 0.201-0.123 0.586-0.157 0.82-0.113 0.76-0.383 1.537-0.708 2.2"></path>
</symbol>
</defs>
</svg>